# xmcd
#
# Track frame offsets: 
#        183
#        27455
#        67480
#        88615
#        117793
#        147450
#        172745
#        205960
#        228590
#        251848
#
# Disc length: 3910 seconds
#
# Revision: 4
# Processed by: cddbd v1.5.2PL0 Copyright (c) Steve Scherf et al.
# Submitted via: ExactAudioCopy v0.95b4
#
DISCID=940f440a
DTITLE=Revolting Cocks - Linger Ficken'  Good
DYEAR=1993
DGENRE=Industrial
TTITLE0=Gila Copter
TTITLE1=Creep
TTITLE2=Mr. Lucky
TTITLE3=Crackin' Up
TTITLE4=Sergio
TTITLE5=Da Ya Think I'm Sexy?
TTITLE6=The Rockabye
TTITLE7=Butcher Flower's Woman
TTITLE8=Dirt
TTITLE9=Linger Ficken'  Good
EXTD=YEAR: 1993 ID3G: 19
EXTT0=
EXTT1=
EXTT2=
EXTT3=
EXTT4=
EXTT5=
EXTT6=
EXTT7=
EXTT8=
EXTT9=
PLAYORDER=
